<svg enable-background="new 0 0 512 512" viewBox="0 0 512 512" xmlns="http://www.w3.org/2000/svg"><g id="Layer_3">
<path d="m239.899 416.742c4.439 4.439 10.27 6.659 16.101 6.659s11.662-2.22 16.101-6.659l90.897-90.896c6.636-6.636 8.527-16.145 4.936-24.815s-11.652-14.056-21.037-14.056h-23.454v-223.058c0-22.562-18.355-40.917-40.917-40.917h-53.051c-22.562 0-40.917 18.355-40.917 40.917v223.058h-23.454c-9.384 0-17.445 5.386-21.037 14.056-3.591 8.67-1.701 18.179 4.936 24.815zm-81.05-109.588c.406-.98 2.058-4.179 6.255-4.179h31.454c4.418 0 8-3.582 8-8v-231.058c0-13.739 11.178-24.917 24.917-24.917h53.051c13.739 0 24.917 11.178 24.917 24.917v231.058c0 4.418 3.582 8 8 8h31.454c4.197 0 5.849 3.199 6.255 4.179s1.5 4.41-1.467 7.378l-90.897 90.896c-2.64 2.64-6.935 2.64-9.574 0l-90.896-90.896c-2.97-2.968-1.875-6.398-1.469-7.378zm309.684-3.011v120.428c0 35.526-27.101 64.429-60.412 64.429h-304.242c-33.311 0-60.412-28.903-60.412-64.429v-120.428c0-35.526 27.101-64.429 60.412-64.429h25.566c4.418 0 8 3.582 8 8s-3.582 8-8 8h-25.566c-24.489 0-44.412 21.725-44.412 48.429v120.428c0 26.704 19.923 48.429 44.412 48.429h304.242c24.489 0 44.412-21.725 44.412-48.429v-120.428c0-26.704-19.923-48.429-44.412-48.429h-25.566c-4.418 0-8-3.582-8-8s3.582-8 8-8h25.566c33.311-.001 60.412 28.902 60.412 64.429z"></path></g>
</svg>